<svg fill="#ffffff" xmlns="http://www.w3.org/2000/svg" xmlns:xlink="http://www.w3.org/1999/xlink" version="1.1" x="0px" y="0px" viewBox="0 0 100 100" enable-background="new 0 0 100 100" xml:space="preserve"><g><path fill="#ffffff" stroke="#ffffff" stroke-width="2" stroke-miterlimit="10" d="M89,74"/></g><g><path fill="#ffffff" d="M53,50c0.5,0,1,0.5,1,1v-1H53z M46,51c0-0.5,0.5-1,1-1h-1V51z"/><path fill="#ffffff" d="M29,25v41h17v8c0,0.4,0.3,0.8,0.7,1c0.4,0.1,0.9,0,1.1-0.4l2.2-2.9l2.2,2.9c0.2,0.3,0.5,0.4,0.8,0.4   c0.1,0,0.2,0,0.3,0c0.4-0.1,0.7-0.5,0.7-1v-8h17V25H29z M52,71l-1.2-1.6C50.6,69.1,50.3,69,50,69s-0.6,0.1-0.8,0.4L48,71V52h4V71z    M69,64H54V51c0-0.5-0.5-1-1-1h-6c-0.5,0-1,0.5-1,1v13H31V27h38V64z"/></g><g><path fill="#ffffff" d="M37,38h-2c0-3,2.2-4.8,5-5v0l0.4-0.1c2.8,0.2,5,2.1,5,5.1h-2c0-2-1.4-3.1-3.2-3.2C38.4,34.9,37,36,37,38z"/></g><g><path fill="#ffffff" d="M57,38h-2c0-3,2.2-4.8,5-5v0l0.4-0.1c2.8,0.2,5,2.1,5,5.1h-2c0-2-1.4-3.1-3.2-3.2C58.4,34.9,57,36,57,38z"/></g></svg>