<svg width='200' height='200' fill="#EC5D57" xmlns="http://www.w3.org/2000/svg" xmlns:xlink="http://www.w3.org/1999/xlink" xml:space="preserve" version="1.1" style="shape-rendering:geometricPrecision;text-rendering:geometricPrecision;image-rendering:optimizeQuality;" viewBox="0 0 333 333" x="0px" y="0px" fill-rule="evenodd" clip-rule="evenodd"><defs><style type="text/css">
   
    .fil0 {fill:#EC5D57;fill-rule:nonzero}
   
  </style></defs><g><g><path class="fil0" d="M286 150c0,9 -14,9 -13,0 0,-42 -38,-33 -35,-47 3,-14 49,4 48,47zm-115 -43c-11,10 -23,-29 -77,-25 -58,5 -78,60 -49,124 10,22 52,95 79,96 27,0 38,-23 47,-16 32,25 49,19 74,-11 39,-46 89,-140 30,-181 -31,-20 -75,-14 -104,13zm-13 -20c-1,-22 9,-78 25,-67 11,8 -15,14 -11,69 73,-53 183,1 129,122 -13,29 -57,103 -91,104 -16,0 -32,-7 -43,-15 -36,25 -59,19 -89,-16 -46,-54 -94,-154 -27,-200 31,-22 75,-19 107,3zm13 199l0 0 0 0z"/></g></g></svg>